<?xml version="1.0" encoding="UTF-8"?>
<svg width="210px" height="40px" viewBox="0 0 210 40" version="1.1" xmlns="http://www.w3.org/2000/svg" xmlns:xlink="http://www.w3.org/1999/xlink">
    <title>Samelogic-Blog-Logo</title>
    <defs>
        <linearGradient x1="-1.2259119%" y1="47.8785695%" x2="95.6311836%" y2="51.8708336%" id="linearGradient-1">
            <stop stop-color="#2E4E84" offset="0%"></stop>
            <stop stop-color="#552E84" offset="100%"></stop>
        </linearGradient>
        <linearGradient x1="401.731365%" y1="153.411114%" x2="50%" y2="55.1409629%" id="linearGradient-2">
            <stop stop-color="#613ABB" offset="0%"></stop>
            <stop stop-color="#B362D1" offset="100%"></stop>
        </linearGradient>
        <linearGradient x1="179.801617%" y1="755.31967%" x2="-151.822024%" y2="453.2608%" id="linearGradient-3">
            <stop stop-color="#613ABB" offset="0%"></stop>
            <stop stop-color="#B363D1" offset="100%"></stop>
        </linearGradient>
        <linearGradient x1="318.222872%" y1="221.604053%" x2="-367.046291%" y2="148.113225%" id="linearGradient-4">
            <stop stop-color="#613ABB" offset="0%"></stop>
            <stop stop-color="#B363D1" offset="100%"></stop>
        </linearGradient>
        <linearGradient x1="318.222872%" y1="203.265896%" x2="-367.046291%" y2="137.628532%" id="linearGradient-5">
            <stop stop-color="#613ABB" offset="0%"></stop>
            <stop stop-color="#B363D1" offset="100%"></stop>
        </linearGradient>
        <linearGradient x1="121.66982%" y1="31.3534878%" x2="-403.301878%" y2="133.694943%" id="linearGradient-6">
            <stop stop-color="#613ABB" offset="0%"></stop>
            <stop stop-color="#B363D1" offset="100%"></stop>
            <stop stop-color="#B363D1" offset="100%"></stop>
        </linearGradient>
        <linearGradient x1="121.66982%" y1="41.9032488%" x2="-403.301878%" y2="86.3422992%" id="linearGradient-7">
            <stop stop-color="#613ABB" offset="0%"></stop>
            <stop stop-color="#B363D1" offset="100%"></stop>
            <stop stop-color="#B363D1" offset="100%"></stop>
        </linearGradient>
        <linearGradient x1="73.7601297%" y1="27.8531173%" x2="-100.279593%" y2="149.406369%" id="linearGradient-8">
            <stop stop-color="#613ABB" offset="0%"></stop>
            <stop stop-color="#B363D1" offset="100%"></stop>
            <stop stop-color="#B363D1" offset="100%"></stop>
        </linearGradient>
        <linearGradient x1="54.6881742%" y1="27.8531173%" x2="20.3479353%" y2="149.406369%" id="linearGradient-9">
            <stop stop-color="#613ABB" offset="0%"></stop>
            <stop stop-color="#B363D1" offset="100%"></stop>
            <stop stop-color="#B363D1" offset="100%"></stop>
        </linearGradient>
        <linearGradient x1="121.66982%" y1="44.7899001%" x2="-403.301878%" y2="73.3855537%" id="linearGradient-10">
            <stop stop-color="#613ABB" offset="0%"></stop>
            <stop stop-color="#B363D1" offset="100%"></stop>
            <stop stop-color="#B363D1" offset="100%"></stop>
        </linearGradient>
        <linearGradient x1="121.66982%" y1="48.8677959%" x2="-403.301878%" y2="55.0819024%" id="linearGradient-11">
            <stop stop-color="#613ABB" offset="0%"></stop>
            <stop stop-color="#B363D1" offset="100%"></stop>
            <stop stop-color="#B363D1" offset="100%"></stop>
        </linearGradient>
        <linearGradient x1="69.3938331%" y1="27.8531173%" x2="-72.6633603%" y2="149.406369%" id="linearGradient-12">
            <stop stop-color="#613ABB" offset="0%"></stop>
            <stop stop-color="#B363D1" offset="100%"></stop>
            <stop stop-color="#B363D1" offset="100%"></stop>
        </linearGradient>
        <linearGradient x1="121.66982%" y1="49.978635%" x2="-403.301878%" y2="50.0958971%" id="linearGradient-13">
            <stop stop-color="#613ABB" offset="0%"></stop>
            <stop stop-color="#B363D1" offset="100%"></stop>
            <stop stop-color="#B363D1" offset="100%"></stop>
        </linearGradient>
        <linearGradient x1="121.66982%" y1="38.2859463%" x2="-403.301878%" y2="102.578575%" id="linearGradient-14">
            <stop stop-color="#613ABB" offset="0%"></stop>
            <stop stop-color="#B363D1" offset="100%"></stop>
            <stop stop-color="#B363D1" offset="100%"></stop>
        </linearGradient>
        <linearGradient x1="100%" y1="61.9397101%" x2="16.8080454%" y2="-3.69472477%" id="linearGradient-15">
            <stop stop-color="#613ABB" offset="0%"></stop>
            <stop stop-color="#B363D1" offset="100%"></stop>
        </linearGradient>
        <linearGradient x1="100%" y1="55.3938615%" x2="16.8080454%" y2="25.7429701%" id="linearGradient-16">
            <stop stop-color="#613ABB" offset="0%"></stop>
            <stop stop-color="#B363D1" offset="100%"></stop>
        </linearGradient>
        <linearGradient x1="100%" y1="51.1368492%" x2="16.8080454%" y2="44.8874131%" id="linearGradient-17">
            <stop stop-color="#613ABB" offset="0%"></stop>
            <stop stop-color="#B363D1" offset="100%"></stop>
        </linearGradient>
        <linearGradient x1="190.450326%" y1="-90.0453302%" x2="16.8080454%" y2="-20.0605251%" id="linearGradient-18">
            <stop stop-color="#613ABB" offset="0%"></stop>
            <stop stop-color="#B363D1" offset="100%"></stop>
        </linearGradient>
        <linearGradient x1="118.308151%" y1="-114.451996%" x2="33.8570611%" y2="-32.2704564%" id="linearGradient-19">
            <stop stop-color="#613ABB" offset="0%"></stop>
            <stop stop-color="#B363D1" offset="100%"></stop>
        </linearGradient>
        <linearGradient x1="190.450326%" y1="7.38563395%" x2="16.8080454%" y2="28.6812966%" id="linearGradient-20">
            <stop stop-color="#613ABB" offset="0%"></stop>
            <stop stop-color="#B363D1" offset="100%"></stop>
        </linearGradient>
        <linearGradient x1="190.450326%" y1="43.4219201%" x2="16.8080454%" y2="46.7091817%" id="linearGradient-21">
            <stop stop-color="#613ABB" offset="0%"></stop>
            <stop stop-color="#B363D1" offset="100%"></stop>
        </linearGradient>
        <linearGradient x1="190.450326%" y1="5.71293734%" x2="16.8080454%" y2="27.844496%" id="linearGradient-22">
            <stop stop-color="#613ABB" offset="0%"></stop>
            <stop stop-color="#B363D1" offset="100%"></stop>
        </linearGradient>
        <linearGradient x1="401.731365%" y1="86.6703336%" x2="50%" y2="51.8230229%" id="linearGradient-23">
            <stop stop-color="#613ABB" offset="0%"></stop>
            <stop stop-color="#B362D1" offset="100%"></stop>
        </linearGradient>
        <linearGradient x1="401.731365%" y1="120.615287%" x2="50%" y2="53.5105567%" id="linearGradient-24">
            <stop stop-color="#613ABB" offset="0%"></stop>
            <stop stop-color="#B362D1" offset="100%"></stop>
        </linearGradient>
        <linearGradient x1="401.731365%" y1="230.054793%" x2="50%" y2="58.9512141%" id="linearGradient-25">
            <stop stop-color="#613ABB" offset="0%"></stop>
            <stop stop-color="#B362D1" offset="100%"></stop>
        </linearGradient>
        <linearGradient x1="401.731365%" y1="342.201979%" x2="50%" y2="64.5264806%" id="linearGradient-26">
            <stop stop-color="#613ABB" offset="0%"></stop>
            <stop stop-color="#B362D1" offset="100%"></stop>
        </linearGradient>
        <linearGradient x1="0%" y1="3.60690248%" x2="83.5342994%" y2="88.7426466%" id="linearGradient-27">
            <stop stop-color="#BA66D3" offset="0%"></stop>
            <stop stop-color="#5635B8" offset="100%"></stop>
        </linearGradient>
        <linearGradient x1="137.93456%" y1="42.2436045%" x2="-89.4138452%" y2="66.0885287%" id="linearGradient-28">
            <stop stop-color="#32C5FF" offset="0%"></stop>
            <stop stop-color="#B620E0" offset="57.2222372%"></stop>
            <stop stop-color="#F5B008" offset="100%"></stop>
            <stop stop-color="#F7B500" offset="100%"></stop>
        </linearGradient>
        <path d="M172.54075,25 C173.883523,25 174.927224,24.8046875 175.671853,24.4140625 C176.416482,24.0234375 177.021951,23.4179688 177.488259,22.5976562 C177.954568,21.7773438 178.187722,20.8276367 178.187722,19.7485352 C178.187722,18.4985352 177.893533,17.421875 177.305154,16.5185547 C176.716775,15.6152344 175.900125,14.9804688 174.855203,14.6142578 C174.127664,14.3554688 172.95823,14.2260742 171.346902,14.2260742 L171.346902,14.2260742 L169.113015,14.2260742 L169.113015,25 L172.54075,25 Z M171.390847,23.9819336 L170.14573,23.9819336 L170.14573,15.2734375 L170.907449,15.2734375 C172.455301,15.2734375 173.56614,15.3759766 174.239968,15.5810547 C175.138406,15.8544922 175.83909,16.3598633 176.342019,17.097168 C176.844949,17.8344727 177.096414,18.7231445 177.096414,19.7631836 C177.096414,20.7543945 176.86448,21.5930176 176.400613,22.2790527 C175.936746,22.9650879 175.299539,23.4399414 174.488992,23.7036133 C173.91282,23.8891602 172.880105,23.9819336 171.390847,23.9819336 L171.390847,23.9819336 Z M183.25364,25.2050781 C184.469461,25.2050781 185.464334,24.7888184 186.238259,23.9562988 C187.012185,23.1237793 187.399148,22.1508789 187.399148,21.0375977 C187.399148,19.9291992 187.032937,18.9697266 186.300515,18.1591797 C185.494851,17.2705078 184.479226,16.8261719 183.25364,16.8261719 C182.023172,16.8261719 181.005105,17.2729492 180.199441,18.1665039 C179.467019,18.9770508 179.100808,19.934082 179.100808,21.0375977 C179.100808,22.1508789 179.487771,23.1237793 180.261697,23.9562988 C181.035623,24.7888184 182.032937,25.2050781 183.25364,25.2050781 Z M183.25364,24.230957 C182.687234,24.230957 182.167215,24.095459 181.693582,23.8244629 C181.219949,23.5534668 180.843972,23.1689453 180.565652,22.6708984 C180.287332,22.1728516 180.148172,21.6357422 180.148172,21.0595703 C180.148172,20.1660156 180.453347,19.4042969 181.063699,18.7744141 C181.674051,18.1445312 182.404031,17.8295898 183.25364,17.8295898 C184.098367,17.8295898 184.827127,18.1445312 185.43992,18.7744141 C186.052713,19.4042969 186.359109,20.1660156 186.359109,21.0595703 C186.359109,21.6357422 186.219949,22.1728516 185.941629,22.6708984 C185.663308,23.1689453 185.287332,23.5534668 184.813699,23.8244629 C184.340066,24.095459 183.820047,24.230957 183.25364,24.230957 Z M192.684793,25.2050781 C193.505105,25.2050781 194.236306,25.0476074 194.878396,24.732666 C195.520486,24.4177246 196.031961,23.9746094 196.41282,23.4033203 L196.41282,23.4033203 L195.599832,22.8686523 C194.857644,23.8012695 193.900613,24.2675781 192.728738,24.2675781 C192.08909,24.2675781 191.511697,24.1259766 190.99656,23.8427734 C190.481424,23.5595703 190.07615,23.1616211 189.78074,22.6489258 C189.48533,22.1362305 189.337625,21.5893555 189.337625,21.0083008 C189.337625,20.1147461 189.65867,19.3554688 190.300759,18.7304688 C190.942849,18.1054688 191.749734,17.7929688 192.721414,17.7929688 C193.937234,17.7929688 194.896707,18.2592773 195.599832,19.1918945 L195.599832,19.1918945 L196.41282,18.6865234 C196.173562,18.2861328 195.883035,17.956543 195.541238,17.6977539 C195.199441,17.4389648 194.783181,17.2290039 194.292459,17.0678711 C193.801736,16.9067383 193.292703,16.8261719 192.765359,16.8261719 C191.925515,16.8261719 191.166238,17.0117188 190.487527,17.3828125 C189.808816,17.7539062 189.275369,18.2702637 188.887185,18.9318848 C188.499002,19.5935059 188.30491,20.3100586 188.30491,21.081543 C188.30491,22.2290039 188.719949,23.203125 189.550027,24.0039062 C190.380105,24.8046875 191.425027,25.2050781 192.684793,25.2050781 Z M199.362039,25.2050781 C200.050515,25.2050781 200.624246,24.9780273 201.08323,24.5239258 C201.542215,24.0698242 201.771707,23.515625 201.771707,22.8613281 C201.771707,22.3974609 201.637429,21.9799805 201.368875,21.6088867 C201.095437,21.2426758 200.577859,20.8618164 199.81614,20.4663086 C199.19114,20.144043 198.780984,19.8632812 198.585672,19.6240234 C198.390359,19.3896484 198.292703,19.1430664 198.292703,18.8842773 C198.292703,18.5913086 198.411111,18.3349609 198.647927,18.1152344 C198.884744,17.8955078 199.169168,17.7856445 199.501199,17.7856445 C200.02366,17.7856445 200.558328,18.0517578 201.105203,18.5839844 L201.105203,18.5839844 L201.764383,17.902832 C201.022195,17.1850586 200.28489,16.8261719 199.552468,16.8261719 C198.922586,16.8261719 198.401345,17.0263672 197.988748,17.4267578 C197.57615,17.8271484 197.369851,18.3300781 197.369851,18.9355469 C197.369851,19.3994141 197.499246,19.8120117 197.758035,20.1733398 C198.016824,20.534668 198.505105,20.9008789 199.222879,21.2719727 C199.891824,21.6137695 200.321511,21.8969727 200.511941,22.121582 C200.702371,22.3510742 200.797586,22.6123047 200.797586,22.9052734 C200.797586,23.2617188 200.653543,23.5717773 200.365457,23.8354492 C200.077371,24.0991211 199.72825,24.230957 199.318093,24.230957 C198.732156,24.230957 198.177957,23.9355469 197.655496,23.3447266 L197.655496,23.3447266 L197.010965,24.0771484 C197.284402,24.4287109 197.629861,24.7045898 198.047342,24.9047852 C198.464822,25.1049805 198.903054,25.2050781 199.362039,25.2050781 Z" id="path-29"></path>
        <filter x="-15.3%" y="-36.4%" width="130.6%" height="191.1%" filterUnits="objectBoundingBox" id="filter-30">
            <feOffset dx="0" dy="1" in="SourceAlpha" result="shadowOffsetOuter1"></feOffset>
            <feGaussianBlur stdDeviation="1.5" in="shadowOffsetOuter1" result="shadowBlurOuter1"></feGaussianBlur>
            <feColorMatrix values="0 0 0 0 0   0 0 0 0 0   0 0 0 0 0  0 0 0 0.155783913 0" type="matrix" in="shadowBlurOuter1"></feColorMatrix>
        </filter>
    </defs>
    <g id="Samelogic-Blog-Logo" stroke="none" stroke-width="1" fill="none" fill-rule="evenodd">
        <g id="Official-Samelogic-Logo-white" opacity="0.794723732" transform="translate(52.000000, 10.000000)" fill="url(#linearGradient-1)">
            <path d="M6.45481198,5.90806456 L5.60243742,6.78885143 C4.89527893,6.10063459 4.20391541,5.75653133 3.5283264,5.75653133 C3.0989801,5.75653133 2.73120002,5.89859231 2.42497519,6.18271853 C2.11875016,6.46684476 1.96564002,6.79832037 1.96564002,7.17715532 C1.96564002,7.51179288 2.09191647,7.83064085 2.34447309,8.13370877 C2.5970297,8.44309065 3.12739087,8.80613536 3.93557209,9.22285386 C4.92054298,9.73428099 5.58980798,10.2267592 5.94338733,10.7003028 C6.29065257,11.1801604 6.46428272,11.7199921 6.46428272,12.3198142 C6.46428272,13.165879 6.16753317,13.8824977 5.574025,14.4696918 C4.98051703,15.056886 4.23864297,15.3504787 3.3483807,15.3504787 C2.75487273,15.3504787 2.18820713,15.2210454 1.64836737,14.9621747 C1.10852761,14.7033042 0.661824775,14.3465734 0.308245428,13.8919713 L1.14167809,12.9448887 C1.81726711,13.7088725 2.5338858,14.0908587 3.29155586,14.0908587 C3.82192467,14.0908587 4.27336288,13.9203856 4.64588412,13.579434 C5.01840515,13.2384827 5.20466288,12.837555 5.20466288,12.3766392 C5.20466288,11.9978041 5.08154327,11.6600148 4.83530055,11.3632607 C4.58905783,11.0728205 4.03344149,10.7066189 3.16843501,10.2646448 C2.24028938,9.78478719 1.60890734,9.31125066 1.27426968,8.8440208 C0.93963222,8.37679093 0.772315971,7.84327314 0.772315971,7.24345111 C0.772315971,6.46052554 1.03907498,5.81020194 1.57260084,5.29246083 C2.10612671,4.77471972 2.78012707,4.51585305 3.59462219,4.51585305 C4.54170971,4.51585305 5.49509667,4.9799189 6.45481198,5.90806456 Z M19.0699529,4.7810362 L19.0699529,15.0852956 L17.7629789,15.0852956 L17.7629789,13.3142511 C17.2073543,13.9898401 16.5838645,14.4981025 15.8924907,14.8390541 C15.2011168,15.1800054 14.4450368,15.3504787 13.6242276,15.3504787 C12.165713,15.3504787 10.9203118,14.8216961 9.88798664,13.7641153 C8.85566122,12.7065343 8.33950637,11.4200932 8.33950637,9.90475347 C8.33950637,8.42098324 8.86039659,7.15190507 9.90219274,6.09748109 C10.9439889,5.04305713 12.1972824,4.51585305 13.662111,4.51585305 C14.5081758,4.51585305 15.2737265,4.69579697 15.9587864,5.05569017 C16.6438462,5.41558339 17.2452377,5.95541509 17.7629789,6.67520151 L17.7629789,4.7810362 L19.0699529,4.7810362 Z M13.7662902,5.79441464 C13.027562,5.79441464 12.3456692,5.97593702 11.7205915,6.33898718 C11.0955139,6.70203735 10.5983003,7.21187842 10.2289363,7.86852566 C9.85957215,8.52517293 9.67489295,9.2196933 9.67489295,9.95210757 C9.67489295,10.678208 9.86115067,11.3727281 10.2336717,12.0356893 C10.6061927,12.6986506 11.1065632,13.2148054 11.7347977,13.5841696 C12.3630324,13.9535336 13.0370327,14.138213 13.7568192,14.138213 C14.4829196,14.138213 15.1711261,13.9551121 15.8214595,13.588905 C16.4717927,13.2226978 16.9721632,12.7270628 17.3225854,12.1019851 C17.6730077,11.4769075 17.8482164,10.7729164 17.8482164,9.98999074 C17.8482164,8.7966607 17.455181,7.79907695 16.6690985,6.99720963 C15.8830158,6.19534229 14.9154227,5.79441464 13.7662902,5.79441464 Z M22.0437926,4.7810362 L23.3602375,4.7810362 L23.3602375,6.56155159 C23.8211532,5.90490435 24.29469,5.42505392 24.7808613,5.12198596 C25.4501364,4.71789533 26.1541275,4.51585305 26.8928557,4.51585305 C27.3916551,4.51585305 27.8651918,4.61371728 28.3134798,4.80944868 C28.7617677,5.00518006 29.1279695,5.26562519 29.4120956,5.59079187 C29.6962219,5.91595855 29.9424609,6.38160286 30.15082,6.98773879 C30.5927941,6.17955755 31.1452536,5.56553844 31.8082148,5.14566301 C32.4711759,4.7257876 33.1846377,4.51585305 33.9486217,4.51585305 C34.662094,4.51585305 35.2918978,4.69579697 35.8380514,5.05569017 C36.3842053,5.41558339 36.7898683,5.91753218 37.0550527,6.56155159 C37.3202371,7.20557103 37.4528275,8.17158573 37.4528275,9.45962461 L37.4528275,15.0852956 L36.0984992,15.0852956 L36.0984992,9.45962461 C36.0984992,8.3546893 36.0195765,7.59545225 35.8617285,7.18189075 C35.7038807,6.76832924 35.4339648,6.43527516 35.0519729,6.18271853 C34.6699809,5.93016189 34.2138073,5.80388548 33.6834385,5.80388548 C33.039419,5.80388548 32.4506552,5.99330011 31.9171294,6.37213506 C31.3836033,6.75097003 30.9937249,7.25607572 30.7474822,7.88746733 C30.5012395,8.51885883 30.3781201,9.57326707 30.3781201,11.0507234 L30.3781201,15.0852956 L29.061675,15.0852956 L29.061675,9.81004505 C29.061675,8.56620364 28.9843307,7.72173008 28.8296398,7.27659901 C28.6749488,6.83146794 28.405033,6.47473704 28.0198842,6.2063956 C27.6347351,5.93805416 27.1769833,5.80388548 26.6466142,5.80388548 C26.0341644,5.80388548 25.4611851,5.98856474 24.9276592,6.35792883 C24.3941334,6.72729291 23.9995196,7.22450633 23.7438059,7.84958402 C23.4880922,8.47466177 23.3602375,9.43120557 23.3602375,10.7192444 L23.3602375,15.0852956 L22.0437926,15.0852956 L22.0437926,4.7810362 Z M48.9219985,11.6663272 L50.039556,12.2535184 C49.6733488,12.9733049 49.2503228,13.5541764 48.7704652,13.9961505 C48.2906077,14.4381245 47.7507758,14.7743356 47.150954,15.0047935 C46.5511319,15.2352515 45.8723962,15.3504787 45.1147261,15.3504787 C43.4352245,15.3504787 42.1219497,14.7995978 41.1748624,13.6978195 C40.2277748,12.596041 39.7542383,11.3506399 39.7542383,9.96157831 C39.7542383,8.65459776 40.155166,7.48969772 40.9570333,6.46684334 C41.9735737,5.16617663 43.3342022,4.51585305 45.0389596,4.51585305 C46.7942283,4.51585305 48.1958966,5.1819612 49.2440067,6.51419746 C49.9890487,7.45497095 50.3678779,8.62934176 50.3805059,10.0373451 L41.1180373,10.0373451 C41.1432931,11.236989 41.5252793,12.2203667 42.2640075,12.9875075 C43.0027356,13.7546483 43.9150828,14.138213 45.0010762,14.138213 C45.5251313,14.138213 46.0349723,14.0466625 46.5306148,13.8635589 C47.0262571,13.6804553 47.4477047,13.4373732 47.7949702,13.1343052 C48.1422354,12.8312374 48.5179079,12.3419162 48.9219985,11.6663272 Z M48.9219985,8.8913749 C48.7452088,8.18421642 48.4879205,7.61912936 48.1501262,7.19609699 C47.8123317,6.77306461 47.3656287,6.43211826 46.8100041,6.1732477 C46.2543795,5.91437715 45.6703511,5.78494382 45.0579013,5.78494382 C44.0476746,5.78494382 43.1795243,6.11010562 42.4534239,6.76043897 C41.9230549,7.23398265 41.5221274,7.94428755 41.2506289,8.8913749 L48.9219985,8.8913749 Z M52.6535041,0.803289014 L53.9794199,0.803289014 L53.9794199,15.0852956 L52.6535041,15.0852956 L52.6535041,0.803289014 Z M61.6129061,4.51585305 C63.1976991,4.51585305 64.5109739,5.09041078 65.55277,6.2395435 C66.4998574,7.28765354 66.9733941,8.52831945 66.9733941,9.96157831 C66.9733941,11.4011513 66.4730237,12.65918 65.4722679,13.7357027 C64.4715124,14.8122253 63.1850713,15.3504787 61.6129061,15.3504787 C60.0344272,15.3504787 58.7448293,14.8122253 57.7440735,13.7357027 C56.7433178,12.65918 56.2429474,11.4011513 56.2429474,9.96157831 C56.2429474,8.53463334 56.7164841,7.29712438 57.6635714,6.24901432 C58.7053676,5.09356769 60.0217992,4.51585305 61.6129061,4.51585305 Z M61.6129061,5.8133563 C60.5142847,5.8133563 59.5703685,6.22059776 58.7811289,7.03509294 C57.9918894,7.84958809 57.5972756,8.83454427 57.5972756,9.98999074 C57.5972756,10.735033 57.7772197,11.4295532 58.1371127,12.0735727 C58.4970059,12.717592 58.9831703,13.2148056 59.5956201,13.5652279 C60.20807,13.9156502 60.8804918,14.0908587 61.6129061,14.0908587 C62.3453204,14.0908587 63.0177424,13.9156502 63.6301923,13.5652279 C64.2426421,13.2148056 64.7288063,12.717592 65.0886995,12.0735727 C65.4485927,11.4295532 65.6285366,10.735033 65.6285366,9.98999074 C65.6285366,8.83454427 65.2323443,7.84958809 64.4399479,7.03509294 C63.6475515,6.22059776 62.7052136,5.8133563 61.6129061,5.8133563 Z M78.3099735,4.7810362 L79.6453601,4.7810362 L79.6453601,12.9922429 C79.6453601,14.4381297 79.5190836,15.4956948 79.266527,16.1649697 C78.9192615,17.1120572 78.3162917,17.8413035 77.4575991,18.3527308 C76.5989065,18.864158 75.5665968,19.1198677 74.3606388,19.1198677 C73.4766906,19.1198677 72.6827275,18.9951698 71.9787259,18.74577 C71.2747242,18.4963705 70.7017449,18.1617377 70.2597709,17.7418624 C69.8177968,17.3219871 69.4105552,16.707968 69.0380342,15.8997867 L70.4775999,15.8997867 C70.8690626,16.5816897 71.3741684,17.0867952 71.9929322,17.4151188 C72.6116959,17.7434426 73.3788252,17.907602 74.294343,17.907602 C75.1972331,17.907602 75.9596269,17.7387072 76.5815477,17.4009127 C77.2034683,17.0631182 77.6470143,16.6385137 77.9121987,16.1270865 C78.1773833,15.6156592 78.3099735,14.7917055 78.3099735,13.6552008 L78.3099735,13.1248344 C77.8111741,13.756226 77.2018904,14.2408118 76.4821039,14.5786063 C75.7623174,14.9164008 74.9983451,15.0852956 74.1901638,15.0852956 C73.2430765,15.0852956 72.3528277,14.8501056 71.5193909,14.3797189 C70.6859539,13.9093322 70.0419441,13.2763716 69.5873422,12.4808182 C69.1327401,11.6852648 68.9054426,10.8108006 68.9054426,9.85739936 C68.9054426,8.90399794 69.1422109,8.01532761 69.6157546,7.19136157 C70.0892984,6.36739554 70.7443573,5.71549349 71.5809511,5.23563588 C72.417545,4.75577826 73.2999016,4.51585305 74.2280472,4.51585305 C74.9983451,4.51585305 75.7165421,4.67527705 76.3826603,4.99412979 C77.0487784,5.31298255 77.6912097,5.83860818 78.3099735,6.57102243 L78.3099735,4.7810362 Z M74.3985222,5.79441464 C73.647166,5.79441464 72.9494888,5.97593702 72.3054695,6.33898718 C71.6614499,6.70203735 71.1563443,7.20398614 70.7901372,7.84484861 C70.4239301,8.48571104 70.2408292,9.17865288 70.2408292,9.92369515 C70.2408292,11.053886 70.6196585,11.9883315 71.3773284,12.7270597 C72.1349982,13.4657879 73.1167976,13.8351465 74.3227554,13.8351465 C75.5413413,13.8351465 76.5215621,13.4689449 77.2634471,12.7365306 C78.0053323,12.0041164 78.3762693,11.0412587 78.3762693,9.84792841 C78.3762693,9.07131667 78.2057962,8.37837483 77.8648446,7.769082 C77.5238933,7.15978911 77.0408858,6.67836024 76.4158081,6.32478093 C75.7907305,5.97120165 75.1183084,5.79441464 74.3985222,5.79441464 Z M82.9506785,0.538105867 C83.2537465,0.538105867 83.5126133,0.645440838 83.7272863,0.860113963 C83.9419594,1.07478711 84.0492943,1.33365378 84.0492943,1.63672176 C84.0492943,1.93347581 83.9419594,2.18918557 83.7272863,2.40385872 C83.5126133,2.61853186 83.2537465,2.72586681 82.9506785,2.72586681 C82.6539244,2.72586681 82.3982147,2.61853186 82.1835416,2.40385872 C81.9688684,2.18918557 81.8615334,1.93347581 81.8615334,1.63672176 C81.8615334,1.33365378 81.9688684,1.07478711 82.1835416,0.860113963 C82.3982147,0.645440838 82.6539244,0.538105867 82.9506785,0.538105867 Z M82.2877206,4.7810362 L83.6231072,4.7810362 L83.6231072,15.0852956 L82.2877206,15.0852956 L82.2877206,4.7810362 Z M96.3708399,6.92144302 L95.3195781,7.57493005 C94.4103742,6.3689721 93.1697082,5.76600217 91.5975433,5.76600217 C90.3410741,5.76600217 89.2977151,6.17008673 88.4674351,6.97826797 C87.6371552,7.78644923 87.2220214,8.76824848 87.2220214,9.92369515 C87.2220214,10.6750511 87.4130145,11.3821991 87.7950063,12.0451603 C88.1769982,12.7081213 88.7010455,13.2226978 89.3671636,13.588905 C90.0332817,13.9551121 90.7798911,14.138213 91.607014,14.138213 C93.1223539,14.138213 94.3598628,13.535243 95.3195781,12.3292849 L96.3708399,13.0206553 C95.8783544,13.7593834 95.2169816,14.3323627 94.3867017,14.7396103 C93.5564217,15.1468581 92.610927,15.3504787 91.5501891,15.3504787 C89.9211987,15.3504787 88.5700409,14.8327453 87.4966753,13.7972631 C86.4233097,12.7617808 85.8866348,11.5021736 85.8866348,10.0184034 C85.8866348,9.02080469 86.1376092,8.09425142 86.6395656,7.2387157 C87.1415218,6.38318009 87.8313068,5.71549349 88.708941,5.23563588 C89.5865755,4.75577826 90.5683747,4.51585305 91.6543681,4.51585305 C92.3362712,4.51585305 92.9944869,4.6200311 93.6290355,4.82839033 C94.2635841,5.03674956 94.8018373,5.30824387 95.2438114,5.64288141 C95.6857857,5.97751897 96.061458,6.40370191 96.3708399,6.92144302 Z" id="samelogic"></path>
        </g>
        <g id="Heartbrain-2" transform="translate(6.198020, 3.000000)">
            <g id="Innards" transform="translate(0.682812, 1.512673)" stroke-linecap="round">
                <path d="M3.13410377,0.559488179 C3.13410377,0.559488179 6.7258652,0.269275908 7.21669644,1.84760988" id="Path-56" stroke="url(#linearGradient-2)"></path>
                <g id="Group-3" transform="translate(14.288185, 0.079380)">
                    <line x1="6.64416942" y1="0.0454596036" x2="7.83745081" y2="1.88090382" id="Path-31" stroke="url(#linearGradient-3)"></line>
                    <path d="M5.80933488,3.58642301 C5.80933488,3.58642301 6.3201787,6.17281297 8.84067944,6.87718119 C11.3611802,7.58154941 12.791447,5.6285354 12.791447,5.6285354" id="Path-34" stroke="url(#linearGradient-4)"></path>
                    <path d="M-8.61006799e-14,8.11407428 C-8.61006799e-14,8.11407428 6.9716154,4.8889089 7.26059506,11.5452297 C9.92693783,10.5811898 12.8494977,11.2723763 13.473261,13.6135474" id="Path-36" stroke="url(#linearGradient-5)"></path>
                </g>
                <g id="Group-4" transform="translate(18.907566, 1.823332)">
                    <line x1="12.9102808" y1="-1.30896304e-15" x2="11.005798" y2="1.74750956" id="Path-33" stroke="url(#linearGradient-6)"></line>
                    <path d="M5.33302639,1.14320444 C5.33302639,1.14320444 13.5111464,-0.162803767 12.2726901,5.27906304" id="Path-32" stroke="url(#linearGradient-7)"></path>
                    <path d="M7.25534667,4.85783525 C7.25534667,4.85783525 8.32315605,5.25250386 8.32315608,6.71238077" id="Path-35" stroke="url(#linearGradient-8)"></path>
                    <path d="M5.70945637,12.5372769 C5.70945637,12.5372769 2.64932518,12.8795349 4.59313908,15.5237352 C3.68675752,16.4144 3.66592298,16.8249504 3.41495437,19.2631609 C3.41495437,19.8965364 5.03829823,21.5085634 5.03829823,21.5085634" id="Path-39" stroke="url(#linearGradient-9)"></path>
                    <path d="M-1.41368008e-13,21.5322276 C-1.41368008e-13,21.5322276 1.74039918,21.9585015 3.55554769,19.8428553" id="Path-40" stroke="url(#linearGradient-10)"></path>
                    <path d="M7.42870268,9.8444774 C7.42870268,9.8444774 9.09944106,8.12238804 11.4768041,9.40248029" id="Path-37" stroke="url(#linearGradient-11)"></path>
                    <path d="M5.66874156,18.1233071 C5.66874156,18.1233071 8.19449099,18.6412205 7.82280928,13.9274316" id="Path-41" stroke="url(#linearGradient-12)"></path>
                    <path d="M8.03433542,15.6169628 C8.03433542,15.6169628 9.73500338,15.9002961 12.0886693,15.6169628" id="Path-42" stroke="url(#linearGradient-13)"></path>
                    <line x1="0.714576658" y1="23.9416916" x2="3.33479863" y2="25.893596" id="Path-43" stroke="url(#linearGradient-14)"></line>
                </g>
                <g id="Group-2" transform="translate(9.712223, 11.819959)">
                    <path d="M7.10229651,12.0151464 C7.10229651,12.0151464 4.510769,12.2974688 4.02199583,14.5036426" id="Path-46" stroke="url(#linearGradient-15)"></path>
                    <path d="M3.1415113e-14,1.20671721 C3.1415113e-14,1.20671721 3.44389959,1.52801081 7.95545048,2.3270454e-15 C11.6002214,0.798866452 10.2986194,3.41670274 10.2986194,3.41670274 C10.2986194,3.41670274 9.93361776,4.27449159 9.09816878,4.27449159 C10.8358634,4.50017543 10.7557067,5.84061931 10.7557067,5.84061931" id="Path-38" stroke="url(#linearGradient-16)"></path>
                    <path d="M9.4202517,7.91415005 C9.4202517,7.91415005 7.39801656,10.7992848 4.83581556,7.71685831 C3.95628088,9.22095084 3.2483523,9.25542823 3.2483523,9.25542823" id="Path-45" stroke="url(#linearGradient-17)"></path>
                </g>
                <g id="Group" transform="translate(1.152535, 9.984640)">
                    <path d="M11.3133296,13.5660877 C11.3133296,13.5660877 12.1352306,12.2359099 8.53889812,10.9311641" id="Path-47" stroke="url(#linearGradient-18)"></path>
                    <path d="M10.3520289,11.7327175 C10.3520289,11.7327175 12.2566622,9.00705596 9.90489082,7.60674705 C7.55311946,6.20643815 5.51776496,6.93626324 4.7169483,2.60843292" id="Path-48" stroke="url(#linearGradient-19)"></path>
                    <path d="M10.2276425,7.71525813 C12.428704,5.81643172 13.5270555,6.04422951 13.5270555,6.04422951" id="Path-49" stroke="url(#linearGradient-20)"></path>
                    <line x1="6.40810386" y1="8.75658793" x2="1.60343002" y2="7.82533606" id="Path-50" stroke="url(#linearGradient-21)"></line>
                    <path d="M8.09282819,0.0521177641 C8.09282819,0.0521177641 2.74253256,-0.779338544 3.37421584e-14,4.19970885" id="Path-51" stroke="url(#linearGradient-22)"></path>
                </g>
                <g id="Group-5" transform="translate(0.000000, 1.525857)">
                    <line x1="11.4178056" y1="0.366501227" x2="8.48519173" y2="0.926472747" id="Path-55" stroke="url(#linearGradient-23)"></line>
                    <path d="M13.9977826,3.74610044 C13.9977826,3.74610044 12.0393452,7.24237712 6.98079902,5.20780612 C4.81810583,4.79503533 4.55879878,6.24718418 4.55879878,6.24718418" id="Path-52" stroke="url(#linearGradient-24)"></path>
                    <path d="M7.4819629,5.35914485 C7.4819629,5.35914485 8.4094576,2.49533202 3.90709094,2.49533204 C-0.595275719,2.49533205 0.0294833895,2.1600204 0.0294833895,2.1600204" id="Path-53" stroke="url(#linearGradient-25)"></path>
                    <path d="M15.1219612,0.283476382 C15.1219612,0.283476382 12.6317896,-0.565032153 10.9174819,0.673949604 C9.20317424,1.91293136 11.9395326,2.57057052 11.9395326,2.57057052" id="Path-54" stroke="url(#linearGradient-26)"></path>
                </g>
            </g>
            <path d="M34.2989964,5.20071931 C32.8435389,1.81823292 26.1725067,-3.89549111 17.4886935,4.20155552 C8.80473795,-3.8965095 2.13351653,1.81726775 0.678062025,5.19973195 C-3.92182077,19.4455814 16.8641914,33.2575843 17.5610741,33.7175982 C17.5610741,33.7175982 38.8990692,19.4472215 34.2989964,5.20071931 Z M17.481399,3.96500215 L17.481399,29.8919025" id="Path-30" stroke="url(#linearGradient-27)" stroke-linecap="round" stroke-linejoin="bevel" stroke-dasharray="130"></path>
            <path d="M34.2989964,5.20071931 C32.8435389,1.81823292 26.1725067,-3.89549111 17.4886935,4.20155552 C8.80473795,-3.8965095 2.13351653,1.81726775 0.678062025,5.19973195 C-3.92182077,19.4455814 16.8641914,33.2575843 17.5610741,33.7175982 C17.5610741,33.7175982 38.8990692,19.4472215 34.2989964,5.20071931 Z" id="Path-30" stroke="url(#linearGradient-27)" stroke-width="1.5"></path>
        </g>
        <line x1="157" y1="5.5" x2="157" y2="34.5" id="Line-2" stroke="#D9D9D9" stroke-linecap="round"></line>
        <g id="Docs" fill-rule="nonzero">
            <use fill="black" fill-opacity="1" filter="url(#filter-30)" xlink:href="#path-29"></use>
            <use fill="#4C4C4C" xlink:href="#path-29"></use>
            <use fill="url(#linearGradient-28)" xlink:href="#path-29"></use>
        </g>
    </g>
</svg>