<?xml version="1.0" encoding="UTF-8"?>
<svg width="156px" height="40px" viewBox="0 0 156 40" version="1.1" xmlns="http://www.w3.org/2000/svg" xmlns:xlink="http://www.w3.org/1999/xlink">
    <title>Official-Samelogic-Logo-white</title>
    <g id="Official-Samelogic-Logo-white" stroke="none" stroke-width="1" fill="none" fill-rule="evenodd">
        <g transform="translate(6.000000, 2.000000)">
            <g id="Heartbrain-2" stroke="#FFFFFF">
                <g id="Innards" stroke-linecap="round" transform="translate(0.712976, 1.579497)">
                    <path d="M3.27255711,0.584204342 C3.27255711,0.584204342 7.02298956,0.281171543 7.53550395,1.92923059" id="Path-56"></path>
                    <g id="Group-3" transform="translate(14.919386, 0.082887)">
                        <line x1="6.93768476" y1="0.0474678442" x2="8.183681" y2="1.96399534" id="Path-31"></line>
                        <path d="M6.06597024,3.7448582 C6.06597024,3.7448582 6.59938131,6.44550549 9.23122864,7.18099016 C11.863076,7.91647482 13.3565268,5.87718371 13.3565268,5.87718371" id="Path-34"></path>
                        <path d="M-8.99042961e-14,8.4725247 C-8.99042961e-14,8.4725247 7.27959612,5.1048832 7.58134186,12.0552561 C10.365474,11.0486285 13.4171419,11.770349 14.0684609,14.2149446" id="Path-36"></path>
                    </g>
                    <g id="Group-4" transform="translate(19.742834, 1.903880)">
                        <line x1="13.4806103" y1="-1.36678829e-15" x2="11.4919943" y2="1.8247082" id="Path-33"></line>
                        <path d="M5.56862018,1.19370707 C5.56862018,1.19370707 14.1080199,-0.169995848 12.8148531,5.51227292" id="Path-32"></path>
                        <path d="M7.57586161,5.0724368 C7.57586161,5.0724368 8.69084297,5.48454046 8.69084297,7.00890945" id="Path-35"></path>
                        <path d="M5.96167946,13.0911283 C5.96167946,13.0911283 2.76636277,13.4485061 4.79604733,16.2095176 C3.84962511,17.1395287 3.82787018,17.5682158 3.56581469,20.1141376 C3.56581469,20.7754932 5.26087199,22.4587338 5.26087199,22.4587338" id="Path-39"></path>
                        <path d="M-1.47613135e-13,22.4834434 C-1.47613135e-13,22.4834434 1.81728372,22.9285485 3.71261891,20.7194408" id="Path-40"></path>
                        <path d="M7.75687586,10.2793707 C7.75687586,10.2793707 9.50142142,8.48120574 11.9838077,9.81784782" id="Path-37"></path>
                        <path d="M5.91916604,18.9239292 C5.91916604,18.9239292 8.55649392,19.4647221 8.16839267,14.5426951" id="Path-41"></path>
                        <path d="M8.38926326,16.3068636 C8.38926326,16.3068636 10.1650606,16.59857 12.6227029,16.3068636" id="Path-42"></path>
                        <line x1="0.746144066" y1="24.9993488" x2="3.48211795" y2="27.0374814" id="Path-43"></line>
                    </g>
                    <g id="Group-2" transform="translate(10.141274, 12.342122)">
                        <path d="M7.41605024,12.5459321 C7.41605024,12.5459321 4.71003844,12.8407264 4.19967304,15.144361" id="Path-46"></path>
                        <path d="M3.28029189e-14,1.26002561 C3.28029189e-14,1.26002561 3.5960386,1.59551279 8.30689347,2.42984583e-15 C12.1126771,0.834157479 10.7535751,3.56764029 10.7535751,3.56764029 C10.7535751,3.56764029 10.372449,4.46332315 9.50009292,4.46332315 C11.3145526,4.69897688 11.2308549,6.09863671 11.2308549,6.09863671" id="Path-38"></path>
                        <path d="M9.83640431,8.26376853 C9.83640431,8.26376853 7.72483413,11.2763581 5.04944438,8.05776116 C4.13105503,9.62829905 3.39185274,9.66429953 3.39185274,9.66429953" id="Path-45"></path>
                    </g>
                    <g id="Group" transform="translate(1.203449, 10.425726)">
                        <path d="M11.8131115,14.1653883 C11.8131115,14.1653883 12.6713212,12.7764481 8.91611571,11.4140634" id="Path-47"></path>
                        <path d="M10.809344,12.2510265 C10.809344,12.2510265 12.7981171,9.40495507 10.342453,7.94278558 C7.88678891,6.4806161 5.76151984,7.24268221 4.92532599,2.72366404" id="Path-48"></path>
                        <path d="M10.6794627,8.05609029 C12.9777592,6.07338061 14.1246318,6.31124168 14.1246318,6.31124168" id="Path-49"></path>
                        <line x1="6.69119068" y1="9.14342228" x2="1.67426376" y2="8.17103107" id="Path-50"></line>
                        <path d="M8.45034002,0.0544201382 C8.45034002,0.0544201382 2.86368771,-0.813766898 3.52327648e-14,4.38523678" id="Path-51"></path>
                    </g>
                    <g id="Group-5" transform="translate(0.000000, 1.593264)">
                        <line x1="11.9222029" y1="0.382691924" x2="8.86003678" y2="0.967400958" id="Path-55"></line>
                        <path d="M14.6161539,3.91158958 C14.6161539,3.91158958 12.5711999,7.56231911 7.28918544,5.43786813 C5.03095229,5.00686262 4.76018999,6.52316214 4.76018999,6.52316214" id="Path-52"></path>
                        <path d="M7.81248894,5.59589246 C7.81248894,5.59589246 8.78095698,2.60556675 4.07969207,2.60556677 C-0.621572844,2.60556677 0.0307858589,2.25544227 0.0307858589,2.25544227" id="Path-53"></path>
                        <path d="M15.7899946,0.295999341 C15.7899946,0.295999341 13.1898164,-0.589993226 11.3997767,0.703722257 C9.60973714,1.99743774 12.4669779,2.68412902 12.4669779,2.68412902" id="Path-54"></path>
                    </g>
                </g>
                <path d="M35.8142019,5.43046825 C34.2944474,1.89855586 27.3287132,-4.0675798 18.2612806,4.38716503 C9.19369938,-4.06864318 2.22776757,1.89754805 0.70801635,5.42943728 C-4.0950726,20.3046167 17.6091903,34.7267839 18.3368587,35.2071196 C18.3368587,35.2071196 40.6174892,20.3063293 35.8142019,5.43046825 Z M18.2536639,4.14016158 L18.2536639,31.2124185" id="Path-30" stroke-linecap="round" stroke-linejoin="bevel" stroke-dasharray="130"></path>
                <path d="M35.8142019,5.43046825 C34.2944474,1.89855586 27.3287132,-4.0675798 18.2612806,4.38716503 C9.19369938,-4.06864318 2.22776757,1.89754805 0.70801635,5.42943728 C-4.0950726,20.3046167 17.6091903,34.7267839 18.3368587,35.2071196 C18.3368587,35.2071196 40.6174892,20.3063293 35.8142019,5.43046825 Z" id="Path-30" stroke-width="2"></path>
            </g>
            <path d="M53.454812,12.9080646 L52.6024374,13.7888514 C51.8952789,13.1006346 51.2039154,12.7565313 50.5283264,12.7565313 C50.0989801,12.7565313 49.7312,12.8985923 49.4249752,13.1827185 C49.1187502,13.4668448 48.96564,13.7983204 48.96564,14.1771553 C48.96564,14.5117929 49.0919165,14.8306408 49.3444731,15.1337088 C49.5970297,15.4430906 50.1273909,15.8061354 50.9355721,16.2228539 C51.920543,16.734281 52.589808,17.2267592 52.9433873,17.7003028 C53.2906526,18.1801604 53.4642827,18.7199921 53.4642827,19.3198142 C53.4642827,20.165879 53.1675332,20.8824977 52.574025,21.4696918 C51.980517,22.056886 51.238643,22.3504787 50.3483807,22.3504787 C49.7548727,22.3504787 49.1882071,22.2210454 48.6483674,21.9621747 C48.1085276,21.7033042 47.6618248,21.3465734 47.3082454,20.8919713 L48.1416781,19.9448887 C48.8172671,20.7088725 49.5338858,21.0908587 50.2915559,21.0908587 C50.8219247,21.0908587 51.2733629,20.9203856 51.6458841,20.579434 C52.0184052,20.2384827 52.2046629,19.837555 52.2046629,19.3766392 C52.2046629,18.9978041 52.0815433,18.6600148 51.8353005,18.3632607 C51.5890578,18.0728205 51.0334415,17.7066189 50.168435,17.2646448 C49.2402894,16.7847872 48.6089073,16.3112507 48.2742697,15.8440208 C47.9396322,15.3767909 47.772316,14.8432731 47.772316,14.2434511 C47.772316,13.4605255 48.039075,12.8102019 48.5726008,12.2924608 C49.1061267,11.7747197 49.7801271,11.5158531 50.5946222,11.5158531 C51.5417097,11.5158531 52.4950967,11.9799189 53.454812,12.9080646 Z M66.0699529,11.7810362 L66.0699529,22.0852956 L64.7629789,22.0852956 L64.7629789,20.3142511 C64.2073543,20.9898401 63.5838645,21.4981025 62.8924907,21.8390541 C62.2011168,22.1800054 61.4450368,22.3504787 60.6242276,22.3504787 C59.165713,22.3504787 57.9203118,21.8216961 56.8879866,20.7641153 C55.8556612,19.7065343 55.3395064,18.4200932 55.3395064,16.9047535 C55.3395064,15.4209832 55.8603966,14.1519051 56.9021927,13.0974811 C57.9439889,12.0430571 59.1972824,11.5158531 60.662111,11.5158531 C61.5081758,11.5158531 62.2737265,11.695797 62.9587864,12.0556902 C63.6438462,12.4155834 64.2452377,12.9554151 64.7629789,13.6752015 L64.7629789,11.7810362 L66.0699529,11.7810362 Z M60.7662902,12.7944146 C60.027562,12.7944146 59.3456692,12.975937 58.7205915,13.3389872 C58.0955139,13.7020374 57.5983003,14.2118784 57.2289363,14.8685257 C56.8595721,15.5251729 56.6748929,16.2196933 56.6748929,16.9521076 C56.6748929,17.678208 56.8611507,18.3727281 57.2336717,19.0356893 C57.6061927,19.6986506 58.1065632,20.2148054 58.7347977,20.5841696 C59.3630324,20.9535336 60.0370327,21.138213 60.7568192,21.138213 C61.4829196,21.138213 62.1711261,20.9551121 62.8214595,20.588905 C63.4717927,20.2226978 63.9721632,19.7270628 64.3225854,19.1019851 C64.6730077,18.4769075 64.8482164,17.7729164 64.8482164,16.9899907 C64.8482164,15.7966607 64.455181,14.799077 63.6690985,13.9972096 C62.8830158,13.1953423 61.9154227,12.7944146 60.7662902,12.7944146 Z M69.0437926,11.7810362 L70.3602375,11.7810362 L70.3602375,13.5615516 C70.8211532,12.9049043 71.29469,12.4250539 71.7808613,12.121986 C72.4501364,11.7178953 73.1541275,11.5158531 73.8928557,11.5158531 C74.3916551,11.5158531 74.8651918,11.6137173 75.3134798,11.8094487 C75.7617677,12.0051801 76.1279695,12.2656252 76.4120956,12.5907919 C76.6962219,12.9159585 76.9424609,13.3816029 77.15082,13.9877388 C77.5927941,13.1795575 78.1452536,12.5655384 78.8082148,12.145663 C79.4711759,11.7257876 80.1846377,11.5158531 80.9486217,11.5158531 C81.662094,11.5158531 82.2918978,11.695797 82.8380514,12.0556902 C83.3842053,12.4155834 83.7898683,12.9175322 84.0550527,13.5615516 C84.3202371,14.205571 84.4528275,15.1715857 84.4528275,16.4596246 L84.4528275,22.0852956 L83.0984992,22.0852956 L83.0984992,16.4596246 C83.0984992,15.3546893 83.0195765,14.5954522 82.8617285,14.1818908 C82.7038807,13.7683292 82.4339648,13.4352752 82.0519729,13.1827185 C81.6699809,12.9301619 81.2138073,12.8038855 80.6834385,12.8038855 C80.039419,12.8038855 79.4506552,12.9933001 78.9171294,13.3721351 C78.3836033,13.75097 77.9937249,14.2560757 77.7474822,14.8874673 C77.5012395,15.5188588 77.3781201,16.5732671 77.3781201,18.0507234 L77.3781201,22.0852956 L76.061675,22.0852956 L76.061675,16.810045 C76.061675,15.5662036 75.9843307,14.7217301 75.8296398,14.276599 C75.6749488,13.8314679 75.405033,13.474737 75.0198842,13.2063956 C74.6347351,12.9380542 74.1769833,12.8038855 73.6466142,12.8038855 C73.0341644,12.8038855 72.4611851,12.9885647 71.9276592,13.3579288 C71.3941334,13.7272929 70.9995196,14.2245063 70.7438059,14.849584 C70.4880922,15.4746618 70.3602375,16.4312056 70.3602375,17.7192444 L70.3602375,22.0852956 L69.0437926,22.0852956 L69.0437926,11.7810362 Z M95.9219985,18.6663272 L97.039556,19.2535184 C96.6733488,19.9733049 96.2503228,20.5541764 95.7704652,20.9961505 C95.2906077,21.4381245 94.7507758,21.7743356 94.150954,22.0047935 C93.5511319,22.2352515 92.8723962,22.3504787 92.1147261,22.3504787 C90.4352245,22.3504787 89.1219497,21.7995978 88.1748624,20.6978195 C87.2277748,19.596041 86.7542383,18.3506399 86.7542383,16.9615783 C86.7542383,15.6545978 87.155166,14.4896977 87.9570333,13.4668433 C88.9735737,12.1661766 90.3342022,11.5158531 92.0389596,11.5158531 C93.7942283,11.5158531 95.1958966,12.1819612 96.2440067,13.5141975 C96.9890487,14.4549709 97.3678779,15.6293418 97.3805059,17.0373451 L88.1180373,17.0373451 C88.1432931,18.236989 88.5252793,19.2203667 89.2640075,19.9875075 C90.0027356,20.7546483 90.9150828,21.138213 92.0010762,21.138213 C92.5251313,21.138213 93.0349723,21.0466625 93.5306148,20.8635589 C94.0262571,20.6804553 94.4477047,20.4373732 94.7949702,20.1343052 C95.1422354,19.8312374 95.5179079,19.3419162 95.9219985,18.6663272 Z M95.9219985,15.8913749 C95.7452088,15.1842164 95.4879205,14.6191294 95.1501262,14.196097 C94.8123317,13.7730646 94.3656287,13.4321183 93.8100041,13.1732477 C93.2543795,12.9143772 92.6703511,12.7849438 92.0579013,12.7849438 C91.0476746,12.7849438 90.1795243,13.1101056 89.4534239,13.760439 C88.9230549,14.2339826 88.5221274,14.9442875 88.2506289,15.8913749 L95.9219985,15.8913749 Z M99.6535041,7.80328901 L100.97942,7.80328901 L100.97942,22.0852956 L99.6535041,22.0852956 L99.6535041,7.80328901 Z M108.612906,11.5158531 C110.197699,11.5158531 111.510974,12.0904108 112.55277,13.2395435 C113.499857,14.2876535 113.973394,15.5283194 113.973394,16.9615783 C113.973394,18.4011513 113.473024,19.65918 112.472268,20.7357027 C111.471512,21.8122253 110.185071,22.3504787 108.612906,22.3504787 C107.034427,22.3504787 105.744829,21.8122253 104.744074,20.7357027 C103.743318,19.65918 103.242947,18.4011513 103.242947,16.9615783 C103.242947,15.5346333 103.716484,14.2971244 104.663571,13.2490143 C105.705368,12.0935677 107.021799,11.5158531 108.612906,11.5158531 Z M108.612906,12.8133563 C107.514285,12.8133563 106.570368,13.2205978 105.781129,14.0350929 C104.991889,14.8495881 104.597276,15.8345443 104.597276,16.9899907 C104.597276,17.735033 104.77722,18.4295532 105.137113,19.0735727 C105.497006,19.717592 105.98317,20.2148056 106.59562,20.5652279 C107.20807,20.9156502 107.880492,21.0908587 108.612906,21.0908587 C109.34532,21.0908587 110.017742,20.9156502 110.630192,20.5652279 C111.242642,20.2148056 111.728806,19.717592 112.088699,19.0735727 C112.448593,18.4295532 112.628537,17.735033 112.628537,16.9899907 C112.628537,15.8345443 112.232344,14.8495881 111.439948,14.0350929 C110.647552,13.2205978 109.705214,12.8133563 108.612906,12.8133563 Z M125.309973,11.7810362 L126.64536,11.7810362 L126.64536,19.9922429 C126.64536,21.4381297 126.519084,22.4956948 126.266527,23.1649697 C125.919262,24.1120572 125.316292,24.8413035 124.457599,25.3527308 C123.598907,25.864158 122.566597,26.1198677 121.360639,26.1198677 C120.476691,26.1198677 119.682728,25.9951698 118.978726,25.74577 C118.274724,25.4963705 117.701745,25.1617377 117.259771,24.7418624 C116.817797,24.3219871 116.410555,23.707968 116.038034,22.8997867 L117.4776,22.8997867 C117.869063,23.5816897 118.374168,24.0867952 118.992932,24.4151188 C119.611696,24.7434426 120.378825,24.907602 121.294343,24.907602 C122.197233,24.907602 122.959627,24.7387072 123.581548,24.4009127 C124.203468,24.0631182 124.647014,23.6385137 124.912199,23.1270865 C125.177383,22.6156592 125.309973,21.7917055 125.309973,20.6552008 L125.309973,20.1248344 C124.811174,20.756226 124.20189,21.2408118 123.482104,21.5786063 C122.762317,21.9164008 121.998345,22.0852956 121.190164,22.0852956 C120.243077,22.0852956 119.352828,21.8501056 118.519391,21.3797189 C117.685954,20.9093322 117.041944,20.2763716 116.587342,19.4808182 C116.13274,18.6852648 115.905443,17.8108006 115.905443,16.8573994 C115.905443,15.9039979 116.142211,15.0153276 116.615755,14.1913616 C117.089298,13.3673955 117.744357,12.7154935 118.580951,12.2356359 C119.417545,11.7557783 120.299902,11.5158531 121.228047,11.5158531 C121.998345,11.5158531 122.716542,11.675277 123.38266,11.9941298 C124.048778,12.3129825 124.69121,12.8386082 125.309973,13.5710224 L125.309973,11.7810362 Z M121.398522,12.7944146 C120.647166,12.7944146 119.949489,12.975937 119.305469,13.3389872 C118.66145,13.7020374 118.156344,14.2039861 117.790137,14.8448486 C117.42393,15.485711 117.240829,16.1786529 117.240829,16.9236952 C117.240829,18.053886 117.619659,18.9883315 118.377328,19.7270597 C119.134998,20.4657879 120.116798,20.8351465 121.322755,20.8351465 C122.541341,20.8351465 123.521562,20.4689449 124.263447,19.7365306 C125.005332,19.0041164 125.376269,18.0412587 125.376269,16.8479284 C125.376269,16.0713167 125.205796,15.3783748 124.864845,14.769082 C124.523893,14.1597891 124.040886,13.6783602 123.415808,13.3247809 C122.79073,12.9712016 122.118308,12.7944146 121.398522,12.7944146 Z M129.950678,7.53810587 C130.253746,7.53810587 130.512613,7.64544084 130.727286,7.86011396 C130.941959,8.07478711 131.049294,8.33365378 131.049294,8.63672176 C131.049294,8.93347581 130.941959,9.18918557 130.727286,9.40385872 C130.512613,9.61853186 130.253746,9.72586681 129.950678,9.72586681 C129.653924,9.72586681 129.398215,9.61853186 129.183542,9.40385872 C128.968868,9.18918557 128.861533,8.93347581 128.861533,8.63672176 C128.861533,8.33365378 128.968868,8.07478711 129.183542,7.86011396 C129.398215,7.64544084 129.653924,7.53810587 129.950678,7.53810587 Z M129.287721,11.7810362 L130.623107,11.7810362 L130.623107,22.0852956 L129.287721,22.0852956 L129.287721,11.7810362 Z M143.37084,13.921443 L142.319578,14.5749301 C141.410374,13.3689721 140.169708,12.7660022 138.597543,12.7660022 C137.341074,12.7660022 136.297715,13.1700867 135.467435,13.978268 C134.637155,14.7864492 134.222021,15.7682485 134.222021,16.9236952 C134.222021,17.6750511 134.413014,18.3821991 134.795006,19.0451603 C135.176998,19.7081213 135.701046,20.2226978 136.367164,20.588905 C137.033282,20.9551121 137.779891,21.138213 138.607014,21.138213 C140.122354,21.138213 141.359863,20.535243 142.319578,19.3292849 L143.37084,20.0206553 C142.878354,20.7593834 142.216982,21.3323627 141.386702,21.7396103 C140.556422,22.1468581 139.610927,22.3504787 138.550189,22.3504787 C136.921199,22.3504787 135.570041,21.8327453 134.496675,20.7972631 C133.42331,19.7617808 132.886635,18.5021736 132.886635,17.0184034 C132.886635,16.0208047 133.137609,15.0942514 133.639566,14.2387157 C134.141522,13.3831801 134.831307,12.7154935 135.708941,12.2356359 C136.586576,11.7557783 137.568375,11.5158531 138.654368,11.5158531 C139.336271,11.5158531 139.994487,11.6200311 140.629036,11.8283903 C141.263584,12.0367496 141.801837,12.3082439 142.243811,12.6428814 C142.685786,12.977519 143.061458,13.4037019 143.37084,13.921443 Z" id="samelogic" fill="#FFFFFF" fill-rule="nonzero"></path>
        </g>
    </g>
</svg>